<svg width="243" height="243" viewBox="0 0 243 243" fill="none" xmlns="http://www.w3.org/2000/svg">
<path d="M220.117 130.714C217.485 122.006 213.131 114.412 207.36 108.236C199.969 99.8324 190.148 94.0612 179.111 91.5299C173.543 66.2174 157.95 47.9924 135.776 41.2087C111.679 33.7162 83.7337 41.0062 66.2175 59.3324C50.8275 75.4312 45.765 97.6049 51.7388 121.196C31.4888 126.157 21.465 143.066 20.3512 159.165C20.25 160.279 20.25 161.291 20.25 162.304C20.25 181.339 32.7037 202.702 60.4462 204.727H165.544C179.921 204.727 193.691 199.361 204.221 189.742C220.725 175.264 226.8 152.685 220.117 130.714Z" fill="white"/>
</svg>
