<svg width="243" height="243" viewBox="0 0 243 243" fill="none" xmlns="http://www.w3.org/2000/svg">
<path d="M101.25 37.9688H113.906V86.0625C113.906 90.2137 117.349 93.6562 121.5 93.6562C125.651 93.6562 129.094 90.2137 129.094 86.0625V37.9688H141.75C145.901 37.9688 149.344 34.5262 149.344 30.375C149.344 26.2238 145.901 22.7812 141.75 22.7812H101.25C97.0988 22.7812 93.6562 26.2238 93.6562 30.375C93.6562 34.5262 97.0988 37.9688 101.25 37.9688Z" fill="#ADF0FF"/>
<path d="M141.75 205.031H129.094V156.938C129.094 152.786 125.651 149.344 121.5 149.344C117.349 149.344 113.906 152.786 113.906 156.938V205.031H101.25C97.0988 205.031 93.6562 208.474 93.6562 212.625C93.6562 216.776 97.0988 220.219 101.25 220.219H141.75C145.901 220.219 149.344 216.776 149.344 212.625C149.344 208.474 145.901 205.031 141.75 205.031Z" fill="#ADF0FF"/>
<path d="M28.654 100.035C29.869 100.744 31.1853 101.047 32.4003 101.047C35.0328 101.047 37.564 99.7312 38.9815 97.2L45.3603 86.265L87.0753 110.362C88.189 111.071 89.5053 111.375 90.8215 111.375C93.454 111.375 95.9853 110.059 97.4028 107.527C99.529 103.984 98.2128 99.3262 94.669 97.2L52.954 73.1024L59.2315 62.1675C61.3578 58.5225 60.0415 53.865 56.4978 51.84C52.8528 49.7137 48.1953 50.9287 46.1703 54.5737L25.9203 89.6062C23.794 93.3525 25.009 97.9087 28.654 100.035Z" fill="#ADF0FF"/>
<path d="M214.346 142.965C210.701 140.839 206.044 142.054 204.019 145.699L197.64 156.634L155.925 132.638C152.28 130.511 147.622 131.828 145.597 135.371C143.471 139.016 144.787 143.674 148.331 145.699L189.945 169.796L183.667 180.731C181.541 184.376 182.857 189.034 186.401 191.059C187.616 191.768 188.932 192.071 190.147 192.071C192.78 192.071 195.311 190.755 196.729 188.224L216.979 153.191C219.206 149.648 217.991 145.091 214.346 142.965Z" fill="#ADF0FF"/>
<path d="M190.046 73.1025L148.331 97.2C144.686 99.3263 143.471 103.984 145.597 107.528C147.015 109.958 149.546 111.375 152.178 111.375C153.495 111.375 154.811 111.071 155.925 110.363L197.538 86.265L203.917 97.2C205.335 99.63 207.866 101.048 210.498 101.048C211.815 101.048 213.131 100.744 214.245 100.035C217.89 97.9088 219.105 93.2513 216.978 89.7075L196.728 54.675C194.602 51.03 189.945 49.815 186.401 51.9413C182.756 54.0675 181.541 58.725 183.667 62.2688L190.046 73.1025Z" fill="#ADF0FF"/>
<path d="M52.954 169.897L94.5678 145.8C98.2128 143.674 99.4278 139.016 97.3015 135.472C95.1753 131.827 90.5178 130.612 86.974 132.739L45.3603 156.836L38.9815 145.901C36.8553 142.256 32.1978 141.041 28.654 143.167C25.009 145.294 23.794 149.951 25.9203 153.495L46.1703 188.527C47.5878 190.957 50.119 192.375 52.7515 192.375C54.0678 192.375 55.384 192.071 56.4978 191.362C60.1428 189.236 61.3578 184.579 59.2315 181.035L52.954 169.897Z" fill="#ADF0FF"/>
<path d="M156.938 121.5C156.938 127.98 155.216 133.954 152.179 139.219C146.002 149.85 134.561 156.938 121.5 156.938C108.439 156.938 96.9975 149.85 90.8213 139.219C87.7838 133.954 86.0625 127.98 86.0625 121.5C86.0625 115.02 87.7838 109.046 90.8213 103.781C96.9975 93.15 108.439 86.0625 121.5 86.0625C134.561 86.0625 146.002 93.15 152.179 103.781C155.216 109.046 156.938 115.02 156.938 121.5Z" fill="#ADF0FF"/>
</svg>
