<svg width="243" height="243" viewBox="0 0 243 243" fill="none" xmlns="http://www.w3.org/2000/svg">
<path d="M168.077 179.425C181.644 179.526 194.705 174.463 204.729 165.351C237.838 136.393 220.119 78.2759 176.48 72.8084C160.888 -21.7591 24.5042 14.0834 56.8029 104.095C9.62044 107.436 8.81898 176.083 55.9002 179.425H168.077Z" fill="white"/>
<path d="M92.4833 190.55H102.152V219.514C102.152 228.793 114.009 233.949 120.459 226.44L156.363 185.808C156.365 185.806 156.367 185.804 156.369 185.802C158.973 182.865 161.267 178.446 159.241 174.027C157.231 169.642 152.417 168.45 148.517 168.45H138.848V139.486C138.848 130.207 126.991 125.051 120.541 132.56L84.6372 173.192C84.6358 173.194 84.6343 173.195 84.6329 173.197C82.0273 176.133 79.733 180.553 81.759 184.973C83.7692 189.358 88.5828 190.55 92.4833 190.55Z" fill="#FFC700" stroke="#161616" stroke-width="10" stroke-miterlimit="10" stroke-linecap="round" stroke-linejoin="round"/>
</svg>
