<svg width="243" height="243" viewBox="0 0 243 243" fill="none" xmlns="http://www.w3.org/2000/svg">
<path d="M121.5 192.375C160.643 192.375 192.375 160.643 192.375 121.5C192.375 82.3568 160.643 50.625 121.5 50.625C82.3568 50.625 50.625 82.3568 50.625 121.5C50.625 160.643 82.3568 192.375 121.5 192.375Z" fill="#FFD643"/>
<path d="M121.5 232.47C115.931 232.47 111.375 228.319 111.375 222.75V221.94C111.375 216.371 115.931 211.815 121.5 211.815C127.069 211.815 131.625 216.371 131.625 221.94C131.625 227.509 127.069 232.47 121.5 232.47ZM193.792 203.917C191.16 203.917 188.629 202.905 186.604 200.981L185.287 199.665C181.339 195.716 181.339 189.337 185.287 185.389C189.236 181.44 195.615 181.44 199.564 185.389L200.88 186.705C204.829 190.654 204.829 197.033 200.88 200.981C198.956 202.905 196.425 203.917 193.792 203.917ZM49.2075 203.917C46.575 203.917 44.0438 202.905 42.0188 200.981C38.07 197.033 38.07 190.654 42.0188 186.705L43.335 185.389C47.2838 181.44 53.6625 181.44 57.6113 185.389C61.56 189.337 61.56 195.716 57.6113 199.665L56.295 200.981C54.3712 202.905 51.7388 203.917 49.2075 203.917ZM222.75 131.625H221.94C216.371 131.625 211.815 127.069 211.815 121.5C211.815 115.931 216.371 111.375 221.94 111.375C227.509 111.375 232.47 115.931 232.47 121.5C232.47 127.069 228.319 131.625 222.75 131.625ZM21.06 131.625H20.25C14.6812 131.625 10.125 127.069 10.125 121.5C10.125 115.931 14.6812 111.375 20.25 111.375C25.8188 111.375 30.78 115.931 30.78 121.5C30.78 127.069 26.6287 131.625 21.06 131.625ZM192.476 60.6487C189.844 60.6487 187.312 59.6362 185.287 57.7125C181.339 53.7637 181.339 47.385 185.287 43.4362L186.604 42.12C190.553 38.1712 196.931 38.1712 200.88 42.12C204.829 46.0687 204.829 52.4475 200.88 56.3963L199.564 57.7125C197.64 59.6362 195.109 60.6487 192.476 60.6487ZM50.5237 60.6487C47.8912 60.6487 45.36 59.6362 43.335 57.7125L42.0188 56.295C38.07 52.3462 38.07 45.9675 42.0188 42.0188C45.9675 38.07 52.3462 38.07 56.295 42.0188L57.6113 43.335C61.56 47.2838 61.56 53.6625 57.6113 57.6113C55.6875 59.6363 53.055 60.6487 50.5237 60.6487ZM121.5 30.78C115.931 30.78 111.375 26.6287 111.375 21.06V20.25C111.375 14.6812 115.931 10.125 121.5 10.125C127.069 10.125 131.625 14.6812 131.625 20.25C131.625 25.8188 127.069 30.78 121.5 30.78Z" fill="#FFD643"/>
</svg>
