<svg width="8" height="8" viewBox="0 0 8 8" fill="none" xmlns="http://www.w3.org/2000/svg">
<path d="M0.703943 8C0.525014 8 0.346086 7.9341 0.204826 7.79288C-0.0682755 7.51986 -0.0682755 7.06796 0.204826 6.79494L6.79694 0.204766C7.07004 -0.0682554 7.52207 -0.0682554 7.79517 0.204766C8.06828 0.477788 8.06828 0.929683 7.79517 1.2027L1.20306 7.79288C1.0618 7.9341 0.882871 8 0.703943 8Z" fill="#5F5F5F"/>
<path d="M7.29606 8C7.11713 8 6.9382 7.9341 6.79694 7.79288L0.204826 1.2027C-0.0682755 0.929683 -0.0682755 0.477788 0.204826 0.204766C0.477928 -0.0682554 0.929957 -0.0682554 1.20306 0.204766L7.79517 6.79494C8.06828 7.06796 8.06828 7.51986 7.79517 7.79288C7.65391 7.9341 7.47499 8 7.29606 8Z" fill="#5F5F5F"/>
</svg>
