<svg width="28" height="27" viewBox="0 0 28 27" fill="none" xmlns="http://www.w3.org/2000/svg">
<path d="M16.9156 25.3524H10.331C9.32057 25.3524 8.02633 24.8286 7.32245 24.1266L2.66777 19.5576C1.95254 18.8555 1.41895 17.5851 1.41895 16.6044V10.141C1.41895 9.14921 1.95254 7.87881 2.66777 7.18789L7.32245 2.6189C8.03768 1.91684 9.33192 1.39307 10.331 1.39307H16.9156C17.9261 1.39307 19.2203 1.91684 19.9242 2.6189L24.5788 7.18789C25.2941 7.88996 25.8277 9.16035 25.8277 10.141V16.6044C25.8277 17.5962 25.2941 18.8666 24.5788 19.5576L19.9242 24.1266C19.2089 24.8286 17.9261 25.3524 16.9156 25.3524ZM10.331 3.06465C9.77468 3.06465 8.91185 3.41011 8.52585 3.80015L3.87118 8.36914C3.48518 8.75917 3.12188 9.59496 3.12188 10.141V16.6044C3.12188 17.1505 3.47382 17.9974 3.87118 18.3763L8.52585 22.9453C8.9232 23.3242 9.77468 23.6808 10.331 23.6808H16.9156C17.4719 23.6808 18.3348 23.3353 18.7208 22.9453L23.3754 18.3763C23.7614 17.9863 24.1247 17.1505 24.1247 16.6044V10.141C24.1247 9.59496 23.7728 8.74803 23.3754 8.36914L18.7208 3.80015C18.3234 3.42125 17.4719 3.06465 16.9156 3.06465H10.331Z" fill="#FF6C6C"/>
<path d="M9.6499 18.1087C9.43419 18.1087 9.21849 18.0307 9.0482 17.8635C8.71896 17.5403 8.71896 17.0054 9.0482 16.6822L16.9952 8.88154C17.3245 8.55837 17.8694 8.55837 18.1986 8.88154C18.5279 9.20471 18.5279 9.73961 18.1986 10.0628L10.2516 17.8635C10.0813 18.0307 9.8656 18.1087 9.6499 18.1087Z" fill="#FF6C6C"/>
<path d="M17.5969 18.1087C17.3812 18.1087 17.1655 18.0307 16.9952 17.8635L9.0482 10.0628C8.71896 9.73961 8.71896 9.20471 9.0482 8.88154C9.37743 8.55837 9.92237 8.55837 10.2516 8.88154L18.1986 16.6822C18.5279 17.0054 18.5279 17.5403 18.1986 17.8635C18.0283 18.0307 17.8126 18.1087 17.5969 18.1087Z" fill="#FF6C6C"/>
</svg>
