<svg width="122" height="35" viewBox="0 0 122 35" fill="none" xmlns="http://www.w3.org/2000/svg">
<path d="M43 16L43 22" stroke="white" stroke-opacity="0.2" stroke-width="0.5"/>
<path d="M56.756 23V14.6H58.496V21.464H63.092V23H56.756ZM65.4912 23V14.6H71.9472V16.112H67.2312V18.032H70.3392V19.496H67.2312V21.488H71.9952V23H65.4912ZM78.0493 23.132C77.4253 23.132 76.8453 23.024 76.3093 22.808C75.7733 22.584 75.3013 22.276 74.8933 21.884C74.4933 21.484 74.1773 21.024 73.9453 20.504C73.7213 19.976 73.6093 19.408 73.6093 18.8C73.6093 18.192 73.7213 17.628 73.9453 17.108C74.1773 16.58 74.4933 16.12 74.8933 15.728C75.3013 15.328 75.7733 15.02 76.3093 14.804C76.8453 14.58 77.4253 14.468 78.0493 14.468C78.6733 14.468 79.2533 14.58 79.7893 14.804C80.3333 15.02 80.8053 15.328 81.2053 15.728C81.6133 16.12 81.9293 16.58 82.1533 17.108C82.3773 17.628 82.4893 18.192 82.4893 18.8C82.4893 19.408 82.3773 19.976 82.1533 20.504C81.9293 21.024 81.6133 21.484 81.2053 21.884C80.8053 22.276 80.3333 22.584 79.7893 22.808C79.2533 23.024 78.6733 23.132 78.0493 23.132ZM78.0493 21.536C78.4333 21.536 78.7853 21.468 79.1053 21.332C79.4253 21.188 79.7053 20.996 79.9453 20.756C80.1853 20.508 80.3733 20.216 80.5093 19.88C80.6453 19.544 80.7133 19.184 80.7133 18.8C80.7133 18.408 80.6453 18.048 80.5093 17.72C80.3733 17.384 80.1853 17.096 79.9453 16.856C79.7053 16.608 79.4253 16.416 79.1053 16.28C78.7853 16.136 78.4333 16.064 78.0493 16.064C77.6733 16.064 77.3253 16.136 77.0053 16.28C76.6853 16.416 76.4053 16.608 76.1653 16.856C75.9253 17.096 75.7373 17.384 75.6013 17.72C75.4653 18.048 75.3973 18.404 75.3973 18.788C75.3973 19.18 75.4653 19.544 75.6013 19.88C75.7373 20.216 75.9253 20.508 76.1653 20.756C76.4053 20.996 76.6853 21.188 77.0053 21.332C77.3253 21.468 77.6733 21.536 78.0493 21.536ZM84.8951 23V14.6H86.5511L90.7271 20.024V14.6H92.3591V23H90.8231L86.5391 17.384V23H84.8951ZM95.0833 23V14.6H96.7393L100.915 20.024V14.6H102.547V23H101.011L96.7273 17.384V23H95.0833ZM105.272 23V14.6H111.728V16.112H107.012V18.032H110.12V19.496H107.012V21.488H111.776V23H105.272ZM113.414 23L116.618 18.656L113.582 14.6H115.658L117.65 17.36L119.63 14.6H121.634L118.646 18.656L121.886 23H119.81L117.614 19.952L115.418 23H113.414Z" fill="white"/>
<path d="M30 19V19C30 26.732 23.732 33 16 33V33C8.26801 33 2 26.732 2 19V19C2 11.268 8.26801 5 16 5V5C23.732 5 30 11.268 30 19V19ZM30 19H27C25.6193 19 24.5 20.1193 24.5 21.5V21.75C24.5 22.9926 23.4926 24 22.25 24V24C21.0074 24 20 22.9926 20 21.75V17.1954C20 15.7457 18.8247 14.5704 17.375 14.5704V14.5704C15.9253 14.5704 14.75 15.7457 14.75 17.1954V21.75C14.75 22.9926 13.7426 24 12.5 24V24C11.2574 24 10.25 22.9926 10.25 21.75V21.5C10.25 20.1193 9.13071 19 7.75 19H7.25" stroke="white" stroke-width="2.5" stroke-linecap="round" stroke-linejoin="round"/>
<path d="M56.432 7V2.2H57.7074L59.024 4.792L60.3406 2.2H61.616V7H60.6766V3.46857L59.0103 6.65714L57.3509 3.45486V7H56.432ZM62.7052 7L64.68 2.2H65.8252L67.7794 7H66.7029L66.216 5.73829H64.2343L63.7406 7H62.7052ZM64.5429 4.94286H65.9143L65.2286 3.17371L64.5429 4.94286ZM69.8669 6.11543H70.7035C70.9183 6.11543 71.1172 6.07886 71.3001 6.00571C71.4875 5.928 71.6498 5.82057 71.7869 5.68343C71.9286 5.54629 72.0361 5.38629 72.1092 5.20343C72.1869 5.02057 72.2258 4.82171 72.2258 4.60686C72.2258 4.392 72.1869 4.19314 72.1092 4.01029C72.0315 3.82286 71.9241 3.66057 71.7869 3.52343C71.6498 3.38629 71.4875 3.27886 71.3001 3.20114C71.1172 3.12343 70.9183 3.08457 70.7035 3.08457H69.8669V6.11543ZM68.8726 7V2.2H70.7172C71.0783 2.2 71.4121 2.26171 71.7183 2.38514C72.0246 2.504 72.2921 2.67314 72.5206 2.89257C72.7492 3.112 72.9275 3.368 73.0555 3.66057C73.1881 3.95314 73.2543 4.26857 73.2543 4.60686C73.2543 4.94971 73.1903 5.26514 73.0623 5.55314C72.9343 5.84114 72.7538 6.09486 72.5206 6.31429C72.2921 6.52914 72.0246 6.69829 71.7183 6.82171C71.4121 6.94057 71.0783 7 70.7172 7H68.8726ZM74.6208 7V2.2H78.31V3.064H75.6151V4.16114H77.3911V4.99771H75.6151V6.136H78.3374V7H74.6208ZM81.7914 7V2.2H84.0474C84.3719 2.2 84.6554 2.25486 84.8977 2.36457C85.1399 2.47429 85.3297 2.62971 85.4668 2.83086C85.6039 3.02743 85.6725 3.256 85.6725 3.51657C85.6725 3.72686 85.6177 3.92114 85.5079 4.09943C85.4028 4.27314 85.2588 4.41486 85.0759 4.52457C85.3091 4.63429 85.4942 4.78286 85.6314 4.97029C85.7685 5.15771 85.8371 5.37029 85.8371 5.608C85.8371 5.88229 85.7662 6.12457 85.6245 6.33486C85.4874 6.54514 85.2908 6.70971 85.0348 6.82857C84.7834 6.94286 84.4908 7 84.1571 7H81.7914ZM82.7857 4.16114H83.9857C84.2005 4.16114 84.3697 4.11086 84.4931 4.01029C84.6211 3.90514 84.6851 3.76571 84.6851 3.592C84.6851 3.41829 84.6211 3.28114 84.4931 3.18057C84.3697 3.07543 84.2005 3.02286 83.9857 3.02286H82.7857V4.16114ZM82.7857 6.17714H84.0817C84.3102 6.17714 84.4931 6.12229 84.6302 6.01257C84.7674 5.89829 84.8359 5.74743 84.8359 5.56C84.8359 5.368 84.7674 5.21714 84.6302 5.10743C84.4931 4.99314 84.3102 4.936 84.0817 4.936H82.7857V6.17714ZM88.3981 7V5.16229L86.437 2.2H87.5821L88.9261 4.28457L90.277 2.2H91.3604L89.3924 5.16914V7H88.3981Z" fill="white" fill-opacity="0.5"/>
</svg>
